<?xml version="1.0" encoding="utf-8"?>
<!-- Generator: Adobe Illustrator 26.0.1, SVG Export Plug-In . SVG Version: 6.00 Build 0)  -->
<svg version="1.1" id="Layer_1" xmlns="http://www.w3.org/2000/svg" xmlns:xlink="http://www.w3.org/1999/xlink" x="0px" y="0px"
	 viewBox="0 0 579.45 138.04" style="enable-background:new 0 0 579.45 138.04;" xml:space="preserve">
<style type="text/css">
	.st0{fill:#EF5328;}
	.st1{fill:#FFFFFF;}
</style>
<g>
	<path class="st0" d="M109.7,123.7H30.14c-8.37,0-15.22-6.85-15.22-15.22V28.92c0-8.37,6.85-15.22,15.22-15.22h79.57
		c8.37,0,15.22,6.85,15.22,15.22v79.57C124.92,116.85,118.07,123.7,109.7,123.7z"/>
	<g>
		<polygon class="st1" points="85.89,69.11 73.36,56.58 51.95,78 44.73,70.78 32.2,83.3 51.9,103 51.9,103 51.95,103.05 		"/>
		<polygon class="st1" points="73.42,41.96 93.12,61.66 105.64,49.13 88.15,31.63 58.7,31.63 38.98,51.35 51.51,63.88 		"/>
		<polygon class="st1" points="63.45,105.77 88.51,105.77 105.53,88.76 93,76.23 		"/>
	</g>
</g>
<g>
	<path class="st1" d="M151.41,34.12h47.71v14.03h-32.27v13.13h30.17v13.73h-30.17v14.93h32.97v14.03h-48.41V34.12z"/>
	<path class="st1" d="M203.12,68.6c1.27-3.21,3.04-6.01,5.31-8.42c2.27-2.41,4.94-4.28,8.02-5.61s6.35-2,9.82-2
		c1.8,0,3.77,0.23,5.91,0.7c2.14,0.47,4.06,1.32,5.76,2.56c1.7,1.24,2.82,2.66,3.36,4.26v-6.61h14.93v50.51h-14.93v-6.61
		c-0.73,2.14-2.49,3.93-5.26,5.36s-6.03,2.15-9.77,2.15c-3.47,0-6.75-0.67-9.82-2c-3.07-1.34-5.75-3.21-8.02-5.61
		c-2.27-2.41-4.04-5.21-5.31-8.42c-1.27-3.21-1.9-6.58-1.9-10.12C201.22,75.18,201.85,71.81,203.12,68.6z M219.86,87.69
		c2.47,2.44,5.51,3.66,9.12,3.66c1.67,0,3.54-0.42,5.61-1.25c2.07-0.84,3.86-2.31,5.36-4.41c1.5-2.11,2.25-4.43,2.25-6.97
		c0-2.54-0.75-4.86-2.25-6.97c-1.5-2.1-3.29-3.57-5.36-4.41c-2.07-0.84-3.94-1.25-5.61-1.25c-3.61,0-6.65,1.22-9.12,3.66
		c-2.47,2.44-3.71,5.43-3.71,8.97C216.15,82.26,217.39,85.25,219.86,87.69z"/>
	<path class="st1" d="M260.31,94.56l27.26-27.96h-24.55V53.47h45.3v10.52l-25.66,26.86h26.66v13.13h-49.01V94.56z"/>
	<path class="st1" d="M315.58,46.65c-1.7-1.67-2.56-3.64-2.56-5.91c0-2.34,0.85-4.34,2.56-6.01c1.7-1.67,3.69-2.51,5.96-2.51
		c2.34,0,4.34,0.84,6.01,2.51c1.67,1.67,2.51,3.67,2.51,6.01c0,1.07-0.28,2.27-0.85,3.61c-0.57,1.34-1.57,2.47-3.01,3.41
		c-1.44,0.94-2.99,1.4-4.66,1.4C319.27,49.16,317.28,48.32,315.58,46.65z M314.13,53.47h14.93v50.51h-14.93V53.47z"/>
	<path class="st1" d="M335.07,53.47h14.93v6.31c0.94-2.21,2.61-3.99,5.01-5.36c2.4-1.37,5.11-2.05,8.12-2.05
		c3.34,0,6.18,0.68,8.52,2.05c2.34,1.37,4.08,3.36,5.21,5.96c2.81-5.35,8.42-8.02,16.84-8.02c5.68,0,10.09,1.85,13.23,5.56
		c3.14,3.71,4.71,8.84,4.71,15.38v30.67h-14.93V75.11c0-2.14-0.37-3.98-1.1-5.51c-0.73-1.54-1.7-2.59-2.91-3.16
		c-1.2-0.57-2.37-0.85-3.51-0.85c-2.4,0-4.41,0.95-6.01,2.86c-1.6,1.9-2.41,4.29-2.41,7.17v28.36h-14.93V75.11
		c0-2.14-0.37-3.98-1.1-5.51c-0.73-1.54-1.7-2.59-2.91-3.16c-1.2-0.57-2.37-0.85-3.51-0.85c-1.14,0-2.35,0.32-3.66,0.95
		c-1.3,0.63-2.41,1.77-3.31,3.41c-0.9,1.64-1.35,3.52-1.35,5.66v28.36h-14.93V53.47z"/>
	<path class="st1" d="M416.85,68.6c1.27-3.21,3.04-6.01,5.31-8.42c2.27-2.41,4.94-4.28,8.02-5.61s6.35-2,9.82-2
		c1.8,0,3.77,0.23,5.91,0.7c2.14,0.47,4.06,1.32,5.76,2.56c1.7,1.24,2.82,2.66,3.36,4.26v-6.61h14.93v50.51h-14.93v-6.61
		c-0.73,2.14-2.49,3.93-5.26,5.36s-6.03,2.15-9.77,2.15c-3.47,0-6.75-0.67-9.82-2c-3.07-1.34-5.75-3.21-8.02-5.61
		c-2.27-2.41-4.04-5.21-5.31-8.42c-1.27-3.21-1.9-6.58-1.9-10.12C414.94,75.18,415.58,71.81,416.85,68.6z M433.58,87.69
		c2.47,2.44,5.51,3.66,9.12,3.66c1.67,0,3.54-0.42,5.61-1.25c2.07-0.84,3.86-2.31,5.36-4.41c1.5-2.11,2.25-4.43,2.25-6.97
		c0-2.54-0.75-4.86-2.25-6.97c-1.5-2.1-3.29-3.57-5.36-4.41c-2.07-0.84-3.94-1.25-5.61-1.25c-3.61,0-6.65,1.22-9.12,3.66
		c-2.47,2.44-3.71,5.43-3.71,8.97C429.88,82.26,431.11,85.25,433.58,87.69z"/>
	<path class="st1" d="M509.7,78.62c0-3.87,0.68-7.47,2.05-10.77c1.37-3.31,3.29-6.13,5.76-8.47c2.47-2.34,5.38-4.13,8.72-5.36
		c3.34-1.24,6.95-1.85,10.82-1.85c3.74,0,7.23,0.65,10.47,1.95c3.24,1.3,6.01,3.14,8.32,5.51s4.08,5.13,5.31,8.27
		c1.24,3.14,1.85,6.45,1.85,9.92l-0.2,4.81h-38.18c0.13,2.2,0.9,4.11,2.31,5.71c1.4,1.6,3.16,2.71,5.26,3.31
		c2.1,0.6,4.06,0.9,5.86,0.9c1.87,0,3.84-0.3,5.91-0.9c2.07-0.6,4.21-1.94,6.41-4.01l8.72,8.32c-5.95,6.15-13.2,9.22-21.75,9.22
		c-4.01,0-7.73-0.62-11.17-1.85c-3.44-1.24-6.38-3.01-8.82-5.31c-2.44-2.31-4.33-5.08-5.66-8.32c-1.34-3.24-2-6.8-2-10.67V78.62z
		 M547.99,72.91c0-1.07-0.37-2.25-1.1-3.56c-0.74-1.3-2.02-2.44-3.86-3.41c-1.84-0.97-3.83-1.45-5.96-1.45c-3.21,0-6,0.82-8.37,2.46
		c-2.37,1.64-3.66,3.62-3.86,5.96H547.99z"/>
	<path class="st1" d="M512.61,103.93c-1.94,0.69-6.39,1.14-9.24,1.14c-8.9,0-15.41-2.97-19.17-7.99c-2.85-3.77-4.11-8.67-4.11-16.55
		v-14.5h-7.49V53.48h7.49V38.07h14.84v15.41h14.91v12.55h-14.91v16.21c0,3.42,0.57,5.48,1.83,6.96c1.48,1.71,3.88,2.74,7.53,2.74
		c2.17,0,5.02-0.34,6.05-0.57L512.61,103.93z"/>
</g>
</svg>
